<svg xmlns="http://www.w3.org/2000/svg" xmlns:xlink="http://www.w3.org/1999/xlink" width="235.868" height="56.443" viewBox="0 0 235.868 56.443">
  <defs>
    <clipPath id="clip-path">
      <path id="Caminho_337" data-name="Caminho 337" d="M0,0H235.868V-56.443H0Z" fill="none"/>
    </clipPath>
  </defs>
  <g id="Grupo_484" data-name="Grupo 484" transform="translate(0 56.443)">
    <path id="Caminho_331" data-name="Caminho 331" d="M59.81,0h56.439V-56.442H59.81Z" fill="#f26b2b"/>
    <g id="Grupo_462" data-name="Grupo 462" clip-path="url(#clip-path)">
      <g id="Grupo_459" data-name="Grupo 459" transform="translate(70.147 -48.848)">
        <path id="Caminho_332" data-name="Caminho 332" d="M0,0C0-1.762-.772-3.036-2.785-3.036-4.815-3.036-5.6-1.93-5.6-.168V1.51c0,1.862.737,2.8,2.114,2.8a1.635,1.635,0,0,0,1.576-.922H-1.9V5.837c0,.688-.269,1.175-.956,1.175s-.94-.4-.94-1.107V5.15H-5.537v.6c0,1.677.605,2.852,2.719,2.852C-.806,8.606,0,7.314,0,5.536ZM-1.9,1.745c-.034.637-.3,1.039-.906,1.039-.653,0-.906-.4-.906-1.14V-.336c0-.721.268-1.14.923-1.14.637,0,.889.436.889,1.14ZM32.3,29.5l-6.709-3.871V17.885a.455.455,0,0,0-.229-.4l-6.936-4.005a.457.457,0,0,0-.458,0l-6.937,4.005a.455.455,0,0,0-.229.4v7.747L4.094,29.5a.458.458,0,0,0-.229.4v8.011a.458.458,0,0,0,.229.4l6.937,4a.458.458,0,0,0,.457,0L18.2,38.44,24.9,42.312a.46.46,0,0,0,.458,0l6.938-4a.458.458,0,0,0,.229-.4V29.9a.462.462,0,0,0-.229-.4M17.739,37.118l-5.564-3.212,5.564-3.213ZM24.218,25.9l-5.564,3.211V22.682Zm-6.479,3.211L12.175,25.9l5.564-3.213Zm1.374.793,6.02-3.476L31.156,29.9l-6.023,3.477Zm5.562-4.8L19.113,21.89l5.562-3.212ZM17.281,21.89,11.717,25.1V18.678ZM10.8,41.123,4.78,37.647V30.693L10.8,34.17Zm.915,0V34.7l5.564,3.212Zm19.9-3.476-6.023,3.476V34.17l6.023-3.477Z" fill="#fff"/>
      </g>
      <path id="Caminho_333" data-name="Caminho 333" d="M73.129-51.623h.74v4.4h-.74Zm1.693,1.635v2.765H74.2v-4.4h.727l.8,2.524v-2.524h.616v4.4h-.649Zm4.055-.454V-48.4c0,.675-.279,1.181-1.071,1.181H76.665v-4.4h1.141c.792,0,1.071.5,1.071,1.181m-1.162,2.615c.305,0,.422-.181.422-.447v-2.3a.385.385,0,0,0-.422-.441H77.4v3.192Zm3.634-3.8v3.329c0,.681-.292,1.123-1.045,1.123a.993.993,0,0,1-1.1-1.123v-3.329h.74v3.4c0,.26.1.435.363.435s.363-.175.363-.435v-3.4Zm-.454-.311-1.162.149V-52.2l1.162-.247Z" fill="#fff"/>
      <g id="Grupo_460" data-name="Grupo 460" transform="translate(81.635 -48.171)">
        <path id="Caminho_334" data-name="Caminho 334" d="M0,0V-.591H.688v.6C.688.26.8.4,1.051.4c.234,0,.337-.155.337-.389V-.156a.792.792,0,0,0-.331-.623L.623-1.214A1.482,1.482,0,0,1,.006-2.388v-.149A.918.918,0,0,1,1.044-3.5c.74,0,1.032.363,1.032,1v.357H1.4v-.383c0-.253-.116-.376-.35-.376A.325.325,0,0,0,.7-2.544v.091c0,.247.137.389.351.6l.474.467a1.479,1.479,0,0,1,.6,1.142v.215A.952.952,0,0,1,1.044,1,.916.916,0,0,1,0,0M2.167-3.452H4.133v.6h-.61v3.8H2.777v-3.8h-.61ZM5.119-1.071V.947H4.38v-4.4H5.456c.747,0,1.019.37,1.019.986V-1.9c0,.473-.169.752-.59.85l.707,2H5.813Zm0-1.778v1.37h.247a.32.32,0,0,0,.363-.364v-.649c0-.24-.11-.357-.363-.357Z" fill="#fff"/>
      </g>
      <path id="Caminho_335" data-name="Caminho 335" d="M88.253-51.623h.74v4.4h-.74Zm.953,4.4.831-4.4h.843l.837,4.4h-.759l-.136-.805h-.785l-.13.805Zm.928-1.4h.591l-.292-1.765h-.007Zm2.55.746-.376.993h-.416l.091-1.051h.7Zm.908-3.751h.74v4.4h-.74Zm1.694,1.635v2.765h-.623v-4.4h.727l.8,2.524v-2.524H96.8v4.4h-.649Zm1.842,1.629v-2.128a1.048,1.048,0,0,1,1.116-1.188,1.049,1.049,0,0,1,1.123,1.188v2.128a1.052,1.052,0,0,1-1.123,1.188,1.05,1.05,0,0,1-1.116-1.188m1.5.117V-50.6c0-.266-.117-.454-.383-.454s-.376.188-.376.454v2.362c0,.266.117.454.376.454s.383-.188.383-.454m3.432-3.381-.837,4.4h-.8l-.837-4.4h.752l.506,3.07h.007l.519-3.07Zm.091,4.4.831-4.4h.843l.837,4.4H103.9l-.136-.805h-.785l-.13.805Zm.928-1.4h.59l-.292-1.765h-.006Zm2.576,1.843c.207-.007.24-.052.24-.1s-.039-.072-.1-.072h-.033v-.24c-.629-.078-.888-.551-.888-1.168v-2.128a1.038,1.038,0,0,1,1.1-1.188c.817,0,1.044.455,1.044,1.1v.519h-.675v-.578c0-.272-.09-.428-.357-.428s-.376.188-.376.454v2.362c0,.266.111.454.376.454s.357-.168.357-.428v-.811h.675v.759c0,.617-.246,1.071-.98,1.1v.058c.176.026.273.091.273.234,0,.2-.188.311-.655.311Zm1.55-.448.831-4.4h.843l.837,4.4h-.759l-.136-.805h-.785l-.13.805Zm.578-4.575c.013-.305.13-.552.454-.552.188,0,.344.111.441.111a.088.088,0,0,0,.091-.1h.363c-.013.305-.13.552-.454.552-.188,0-.344-.11-.441-.11a.087.087,0,0,0-.091.1Zm.35,3.18h.591l-.292-1.765h-.007Zm1.791.259v-2.128a1.047,1.047,0,0,1,1.116-1.188,1.049,1.049,0,0,1,1.122,1.188v2.128a1.051,1.051,0,0,1-1.122,1.188,1.05,1.05,0,0,1-1.116-1.188m1.5.117V-50.6c0-.266-.117-.454-.383-.454s-.376.188-.376.454v2.362c0,.266.116.454.376.454s.383-.188.383-.454" fill="#fff"/>
      <g id="Grupo_461" data-name="Grupo 461" transform="translate(73.129 -44.842)">
        <path id="Caminho_336" data-name="Caminho 336" d="M0,0H1.765V.6H.74V1.862h.733v.6H.74V3.8H1.765v.6H0ZM2.77,0h.74V4.4H2.77ZM4.529,1.635V4.4H3.906V0h.726l.8,2.524V0h.617V4.4H5.4ZM6.436,0H8.168V.6H7.176V1.862h.739v.6H7.176V4.4h-.74ZM9.2,2.382V4.4H8.46V0H9.537c.746,0,1.019.37,1.019.986v.565c0,.474-.169.753-.59.85l.707,2H9.894ZM9.2.6V1.973h.246a.321.321,0,0,0,.364-.364V.96C9.81.72,9.7.6,9.446.6Zm1.6,3.8.83-4.4h.844l.836,4.4h-.759L12.418,3.6h-.785L11.5,4.4ZM11.73,3h.591l-.292-1.765h-.007Zm1.856-3h1.765V.6H14.326V1.862h.733v.6h-.733V3.8h1.025v.6H13.586Zm2.083,3.452v-.59h.687v.6c0,.247.111.39.364.39.233,0,.337-.156.337-.39V3.3a.8.8,0,0,0-.331-.623l-.434-.434a1.486,1.486,0,0,1-.617-1.175V.915a.918.918,0,0,1,1.038-.967c.74,0,1.032.363,1.032,1V1.3H17.07V.921c0-.253-.117-.376-.35-.376a.325.325,0,0,0-.351.363V1c0,.247.136.39.351.6l.473.468a1.474,1.474,0,0,1,.6,1.142V3.42a.952.952,0,0,1-1.077,1.031.915.915,0,0,1-1.044-1M18.056,0h1.966V.6h-.61V4.4h-.746V.6h-.61Zm3.017,2.382V4.4h-.739V0h1.077c.746,0,1.018.37,1.018.986v.565c0,.474-.168.753-.59.85l.707,2h-.779Zm0-1.778V1.973h.247a.32.32,0,0,0,.363-.364V.96c0-.24-.11-.356-.363-.356ZM24.94,0V3.329c0,.681-.292,1.123-1.044,1.123a.993.993,0,0,1-1.1-1.123V0h.739V3.4c0,.26.1.435.364.435s.363-.175.363-.435V0Zm.3,0H27.2V.6h-.609V4.4h-.747V.6h-.609Zm4.425,0V3.329c0,.681-.292,1.123-1.045,1.123a.993.993,0,0,1-1.1-1.123V0h.74V3.4c0,.26.1.435.363.435s.363-.175.363-.435V0Zm1.122,2.382V4.4h-.74V0h1.077c.747,0,1.019.37,1.019.986v.565c0,.474-.169.753-.59.85l.707,2H31.48Zm0-1.778V1.973h.247a.32.32,0,0,0,.363-.364V.96c0-.24-.11-.356-.363-.356ZM32.4,4.4,33.226,0h.843l.837,4.4h-.759L34.011,3.6h-.785L33.1,4.4ZM33.323,3h.59l-.292-1.765h-.006Z" fill="#fff"/>
      </g>
    </g>
    <path id="Caminho_338" data-name="Caminho 338" d="M0,0H56.439V-56.442H0Z" fill="#a01c42"/>
    <g id="Grupo_470" data-name="Grupo 470" clip-path="url(#clip-path)">
      <g id="Grupo_463" data-name="Grupo 463" transform="translate(10.966 -43.116)">
        <path id="Caminho_339" data-name="Caminho 339" d="M0,0V-1.242A2.253,2.253,0,0,0-1.276-3.525,2,2,0,0,0-.168-5.505v-.47A2.425,2.425,0,0,0-2.853-8.711,2.409,2.409,0,0,0-5.505-5.975v.47a2.022,2.022,0,0,0,1.073,1.98A2.243,2.243,0,0,0-5.69-1.242V0c0,1.729.823,2.937,2.837,2.937C-.823,2.937,0,1.729,0,0M-3.71-6.092c0-.689.236-1.092.857-1.092.637,0,.873.4.873,1.092v.771c0,.688-.236,1.092-.873,1.092-.621,0-.857-.4-.857-1.092ZM-1.914.2c0,.689-.252,1.176-.939,1.176S-3.776.89-3.776.2V-1.645c0-.688.251-1.175.923-1.175.688,0,.939.487.939,1.175ZM27.962,14.443,22.226,19.9a.951.951,0,0,0-.328.82v15.3a.328.328,0,0,0,.328.326h5.926a.326.326,0,0,0,.326-.326V14.58c0-.18-.141-.51-.516-.137M11.436,21.552,5.7,27.009a.95.95,0,0,0-.327.819v8.186a.328.328,0,0,0,.327.326h5.926a.327.327,0,0,0,.326-.326V21.689c0-.181-.142-.511-.515-.137" fill="#fff"/>
      </g>
      <g id="Grupo_464" data-name="Grupo 464" transform="translate(41.536 -35.292)">
        <path id="Caminho_340" data-name="Caminho 340" d="M0,0A.164.164,0,0,0-.049-.124.175.175,0,0,0-.155-.171l-.031,0-.047,0L-4.626.825l-.08.008a.176.176,0,0,0-.085.045.167.167,0,0,0,0,.236l.049.05,1,1-9.953,9.953-4.6-4.6a.131.131,0,0,0-.186,0v0l-1.247,1.248s0,0,0,0l-7.369,7.368a.133.133,0,0,0,0,.187l1.249,1.249a.13.13,0,0,0,.186,0l7.277-7.276,3.337,3.336a.039.039,0,0,0,.01.016l1.248,1.246a.13.13,0,0,0,.187,0L-2.3,3.6-1.25,4.654a.163.163,0,0,0,.234,0,.161.161,0,0,0,.048-.108V4.532L0,.048Z" fill="#fff"/>
      </g>
      <g id="Grupo_465" data-name="Grupo 465" transform="translate(30.698 -20.607)">
        <path id="Caminho_341" data-name="Caminho 341" d="M0,0-2.776,2.8a.131.131,0,0,1-.178-.006L-5.469.229c-.46-.459-.56-.087-.56.093V13.5a.326.326,0,0,0,.325.327H.224A.327.327,0,0,0,.549,13.5V.1C.549-.077.407-.408,0,0" fill="#fff"/>
      </g>
      <g id="Grupo_466" data-name="Grupo 466" transform="translate(14.379 -52.069)">
        <path id="Caminho_342" data-name="Caminho 342" d="M0,0H2.061V.633H1.422v3.98H.64V.633H0ZM3.245,2.5V4.613H2.47V0H3.6c.782,0,1.068.388,1.068,1.034v.592c0,.5-.177.789-.619.891l.742,2.1H3.973Zm0-1.864V2.068H3.5a.336.336,0,0,0,.381-.381v-.68c0-.252-.116-.374-.381-.374Zm1.763,3.98L5.879,0h.884l.878,4.613h-.8L6.7,3.769H5.878l-.136.844ZM5.98,3.15H6.6L6.293,1.3H6.287ZM8.008,0H9.131c.775,0,1.034.361,1.034,1.014v.469a.672.672,0,0,1-.463.735.7.7,0,0,1,.578.769V3.6c0,.653-.292,1.014-1.068,1.014h-1.2Zm.776,1.946h.272a.327.327,0,0,0,.367-.374V1.007A.326.326,0,0,0,9.049.633H8.784Zm0,.592V3.98h.34a.334.334,0,0,0,.381-.374V2.912c0-.245-.116-.374-.388-.374Zm1.809,2.075L11.464,0h.885l.877,4.613h-.8l-.143-.844h-.823l-.136.844Zm.973-1.463h.62L11.879,1.3h-.006ZM13.594,0h.776V3.98H15.3v.633h-1.7ZM17.22,2.578h-.748V4.613H15.7V0h.776V1.953h.748V0H18V4.613H17.22Zm1.273.844V1.191a1.176,1.176,0,1,1,2.347,0V3.422a1.176,1.176,0,1,1-2.347,0m1.571.123V1.068c0-.279-.122-.476-.4-.476s-.4.2-.4.476V3.545c0,.278.123.476.4.476s.4-.2.4-.476m4.348-2.307V3.374c0,.708-.293,1.239-1.123,1.239h-1.2V0h1.2c.83,0,1.123.524,1.123,1.238M23.194,3.98c.32,0,.442-.191.442-.469V1.1a.4.4,0,0,0-.442-.462h-.326V3.98ZM24.9,0h1.851V.633H25.678v1.32h.768v.625h-.768v1.4h1.075v.633H24.9Z" fill="#fff"/>
      </g>
      <g id="Grupo_467" data-name="Grupo 467" transform="translate(41.602 -48.646)">
        <path id="Caminho_343" data-name="Caminho 343" d="M0,0V-2.232A1.088,1.088,0,0,1,1.157-3.477c.857,0,1.1.477,1.1,1.157v.544H1.544v-.605c0-.286-.1-.449-.374-.449s-.394.2-.394.476V.122C.776.4.891.6,1.17.6S1.544.422,1.544.15V-.7h.708v.8c0,.66-.272,1.15-1.1,1.15A1.091,1.091,0,0,1,0,0M2.572-3.422h1.85v.633H3.347v1.32h.769v.625H3.347v1.4H4.422v.633H2.572ZM5.389-1.708v2.9H4.736V-3.422H5.5L6.334-.776V-3.422h.647V1.191H6.3ZM7.232-3.422H9.294v.633h-.64v3.98H7.872v-3.98h-.64Zm2.32,0H11.4v.633H10.328v1.32H11.1v.625h-.769v1.4H11.4v.633H9.552Z" fill="#fff"/>
      </g>
      <g id="Grupo_468" data-name="Grupo 468" transform="translate(14.114 -45.646)">
        <path id="Caminho_344" data-name="Caminho 344" d="M0,0H1.85V.633H.776v1.32h.768v.626H.776v1.4H1.85v.633H0ZM2.824,3.422V1.191A1.087,1.087,0,0,1,3.98-.054c.857,0,1.1.476,1.1,1.156v.544H4.368V1.041c0-.286-.1-.449-.374-.449s-.395.2-.395.476V3.545c0,.278.116.476.395.476s.374-.177.374-.449V2.721h.708v.8c0,.66-.273,1.15-1.1,1.15A1.09,1.09,0,0,1,2.824,3.422M6.2,2.5V4.613H5.423V0H6.552C7.334,0,7.62.388,7.62,1.034v.592c0,.5-.177.789-.619.891l.742,2.1H6.926ZM6.2.633V2.068h.259a.336.336,0,0,0,.381-.381v-.68c0-.252-.116-.374-.381-.374ZM7.967,0H9.818V.633H8.743v1.32h.769v.626H8.743v1.4H9.818v.633H7.967Zm2.15,3.619V3h.722v.633c0,.259.115.408.38.408.245,0,.354-.163.354-.408V3.456a.835.835,0,0,0-.347-.653l-.456-.456a1.554,1.554,0,0,1-.646-1.231V.959A.962.962,0,0,1,11.213-.054c.775,0,1.082.381,1.082,1.047v.375h-.708v-.4c0-.265-.123-.394-.367-.394a.34.34,0,0,0-.368.38v.1c0,.258.143.408.368.626l.5.49a1.548,1.548,0,0,1,.626,1.2v.225a1,1,0,0,1-1.129,1.081.961.961,0,0,1-1.1-1.048m2.552-.2V1.191A1.087,1.087,0,0,1,13.825-.054c.857,0,1.1.476,1.1,1.156v.544h-.708V1.041c0-.286-.1-.449-.374-.449s-.395.2-.395.476V3.545c0,.278.116.476.395.476s.374-.177.374-.449V2.721h.708v.8c0,.66-.273,1.15-1.1,1.15a1.09,1.09,0,0,1-1.156-1.245M15.268,0h.776V4.613h-.776Zm3.279,1.619h-.02L18,4.613h-.361l-.578-2.994H17.05V4.613h-.639V0h.905l.5,2.6h.007L18.275,0h.98V4.613h-.708ZM19.622,0h1.851V.633H20.4v1.32h.769v.626H20.4v1.4h1.075v.633H19.622ZM22.46,1.715v2.9h-.654V0h.762l.837,2.647V0h.647V4.613h-.681ZM24.331,0h2.061V.633h-.64v3.98H24.97V.633h-.639Zm2.347,3.422V1.191a1.176,1.176,0,1,1,2.347,0V3.422a1.176,1.176,0,1,1-2.347,0m1.571.123V1.068c0-.279-.122-.476-.4-.476s-.4.2-.4.476V3.545c0,.278.123.476.4.476s.4-.2.4-.476" fill="#fff"/>
      </g>
      <g id="Grupo_469" data-name="Grupo 469" transform="translate(14.114 -39.332)">
        <path id="Caminho_345" data-name="Caminho 345" d="M0,0H1.85V.633H.776v1.32h.768v.626H.776v1.4H1.85v.633H0ZM2.164,3.422V1.191A1.087,1.087,0,0,1,3.32-.054c.857,0,1.1.476,1.1,1.156v.544H3.708V1.041c0-.286-.1-.449-.374-.449s-.4.2-.4.476V3.545c0,.278.116.476.4.476s.374-.177.374-.449V2.721h.708v.8c0,.66-.273,1.15-1.1,1.15A1.09,1.09,0,0,1,2.164,3.422m2.572,0V1.191A1.1,1.1,0,0,1,5.906-.054,1.1,1.1,0,0,1,7.083,1.191V3.422A1.1,1.1,0,0,1,5.906,4.667a1.1,1.1,0,0,1-1.17-1.245m1.571.123V1.068c0-.279-.122-.476-.4-.476s-.395.2-.395.476V3.545c0,.278.122.476.395.476s.4-.2.4-.476m1.769-1.83v2.9H7.423V0h.762l.837,2.647V0h.646V4.613h-.68Zm1.932,1.707V1.191a1.1,1.1,0,0,1,1.17-1.245,1.1,1.1,0,0,1,1.177,1.245V3.422a1.1,1.1,0,0,1-1.177,1.245,1.1,1.1,0,0,1-1.17-1.245M10.519-.17V-.544L11.008-.9h.341l.489.361V-.17l-.653-.2ZM11.58,3.545V1.068c0-.279-.123-.476-.4-.476s-.394.2-.394.476V3.545c0,.278.122.476.394.476s.4-.2.4-.476m3.252-1.926h-.02l-.524,2.994h-.361l-.578-2.994h-.014V4.613H12.7V0h.9l.5,2.6h.007L14.56,0h.98V4.613h-.708ZM15.88,0h.776V4.613H15.88ZM17,3.422V1.191A1.087,1.087,0,0,1,18.159-.054c.857,0,1.1.476,1.1,1.156v.544h-.708V1.041c0-.286-.1-.449-.374-.449s-.4.2-.4.476V3.545c0,.278.116.476.4.476s.374-.177.374-.449V2.721h.708v.8c0,.66-.273,1.15-1.1,1.15A1.09,1.09,0,0,1,17,3.422m2.572,0V1.191a1.176,1.176,0,1,1,2.347,0V3.422a1.176,1.176,0,1,1-2.347,0m1.571.123V1.068c0-.279-.122-.476-.4-.476s-.4.2-.4.476V3.545c0,.278.123.476.4.476s.4-.2.4-.476" fill="#fff"/>
      </g>
    </g>
    <path id="Caminho_347" data-name="Caminho 347" d="M179.428,0h56.439V-56.442H179.428Z" fill="#c4212d"/>
    <g id="Grupo_472" data-name="Grupo 472" clip-path="url(#clip-path)">
      <g id="Grupo_471" data-name="Grupo 471" transform="translate(188.27 -40.332)">
        <path id="Caminho_348" data-name="Caminho 348" d="M0,0H1.813V-1.846h.772V-3.34H1.813v-8.04H-.068L-3.374-3.021v1.175H0ZM-1.7-3.34.016-8.022H.034V-3.34ZM16.186,14.153,6.063,8.308V27.216L16.186,30.27Zm1.113.039V30.277l10.188-3.063V8.309ZM35.433,7.83a1.2,1.2,0,1,0-2.4,0V9.121h2.4Zm-2.1,19.051h-.3l1.2,4.186,1.2-4.186h0V10.058h-2.4V26.881Z" fill="#fff"/>
      </g>
    </g>
    <g id="Grupo_473" data-name="Grupo 473" transform="translate(217.931 -31.211)">
      <path id="Caminho_350" data-name="Caminho 350" d="M0,0-1.085-.857V18.609l-11.247,3.634h-1.143l-11.2-3.128V-.857L-25.758,0V19.876l12.231,3.386h1.246L-1,19.679l1-.293Z" fill="#fff"/>
    </g>
    <g id="Grupo_477" data-name="Grupo 477" clip-path="url(#clip-path)">
      <g id="Grupo_474" data-name="Grupo 474" transform="translate(196.437 -40.025)">
        <path id="Caminho_351" data-name="Caminho 351" d="M0,0V-.313A1.061,1.061,0,0,1-.884-1.5V-3.735A1.1,1.1,0,0,1,.286-4.98,1.1,1.1,0,0,1,1.463-3.735V-1.5A1.108,1.108,0,0,1,.891-.415l.572.109V.272ZM.687-1.34V-3.857c0-.279-.122-.477-.4-.477s-.4.2-.4.477V-1.34c0,.272.123.476.4.476s.4-.2.4-.476M4.211-4.926v3.491c0,.714-.306,1.177-1.1,1.177A1.041,1.041,0,0,1,1.96-1.435V-4.926h.775v3.565c0,.272.109.456.381.456s.381-.184.381-.456V-4.926ZM4.579-.313,5.45-4.926h.884L7.212-.313h-.8l-.143-.844H5.45l-.136.844Zm.973-1.463h.619l-.306-1.85H5.858Zm2.034-3.15h.776v3.98h.925v.633h-1.7Zm2.11,0h.776V-.313H9.7Zm3.6,1.239v2.136C13.3-.844,13-.313,12.172-.313h-1.2V-4.926h1.2c.83,0,1.123.524,1.123,1.239M12.077-.946c.32,0,.442-.19.442-.469V-3.83a.4.4,0,0,0-.442-.463H11.75V-.946Zm1.592.633.871-4.613h.884L16.3-.313h-.8l-.143-.844H14.54L14.4-.313Zm.973-1.463h.619l-.306-1.85h-.007ZM19-3.687v2.136C19-.844,18.7-.313,17.874-.313h-1.2V-4.926h1.2C18.7-4.926,19-4.4,19-3.687M17.779-.946c.319,0,.442-.19.442-.469V-3.83a.4.4,0,0,0-.442-.463h-.327V-.946Zm1.714-3.98h1.851v.633H20.269v1.32h.769v.626h-.769v1.4h1.075v.633H19.493Z" fill="#fff"/>
      </g>
      <g id="Grupo_475" data-name="Grupo 475" transform="translate(195.553 -51.714)">
        <path id="Caminho_352" data-name="Caminho 352" d="M0,0H1.851V.633H.776v1.32h.768v.626H.776v1.4H1.851v.633H0ZM4.64,1.238V3.374c0,.708-.293,1.239-1.123,1.239H2.32V0h1.2C4.347,0,4.64.524,4.64,1.238M3.422,3.98c.32,0,.442-.19.442-.469V1.1A.4.4,0,0,0,3.422.633H3.1V3.98ZM7.4,0V3.49c0,.715-.307,1.177-1.1,1.177A1.04,1.04,0,0,1,5.144,3.49V0h.775V3.565c0,.272.109.456.381.456s.381-.184.381-.456V0Z" fill="#fff"/>
      </g>
      <g id="Grupo_476" data-name="Grupo 476" transform="translate(203.459 -48.292)">
        <path id="Caminho_353" data-name="Caminho 353" d="M0,0V-2.232A1.088,1.088,0,0,1,1.157-3.477c.857,0,1.1.477,1.1,1.157v.544H1.544v-.605c0-.286-.1-.449-.374-.449s-.394.2-.394.476V.122C.776.4.891.6,1.17.6S1.544.422,1.544.15V-.7h.708v.8c0,.66-.272,1.15-1.1,1.15A1.091,1.091,0,0,1,0,0M2.449,1.191,3.32-3.422H4.2l.877,4.613h-.8L4.143.347H3.32l-.136.844ZM3.422-.272h.619L3.735-2.123H3.728Zm2.7,1.932c.218-.007.252-.054.252-.109s-.041-.075-.109-.075H6.232V1.225C5.572,1.143,5.3.646,5.3,0V-2.232A1.088,1.088,0,0,1,6.457-3.477c.857,0,1.1.477,1.1,1.157v.544H6.845v-.605c0-.286-.1-.449-.375-.449s-.394.2-.394.476V.122C6.076.4,6.192.6,6.47.6S6.845.422,6.845.15V-.7h.707v.8c0,.647-.258,1.123-1.027,1.15v.061c.184.027.286.1.286.245,0,.211-.2.327-.688.327ZM7.75,1.191l.87-4.613h.885l.878,4.613h-.8L9.444.347H8.62l-.136.844Zm.6-4.8c.014-.32.136-.578.476-.578.2,0,.361.115.463.115a.091.091,0,0,0,.1-.1H9.77c-.013.32-.136.579-.476.579-.2,0-.361-.116-.463-.116a.091.091,0,0,0-.1.1ZM8.722-.272h.62L9.035-2.123H9.029ZM10.6,0V-2.232a1.1,1.1,0,0,1,1.17-1.245,1.1,1.1,0,0,1,1.177,1.245V0A1.1,1.1,0,0,1,11.77,1.245,1.1,1.1,0,0,1,10.6,0m1.572.122V-2.354c0-.279-.123-.476-.4-.476s-.394.2-.394.476V.122c0,.279.122.477.394.477s.4-.2.4-.477M16.22-2.184V-.048c0,.708-.292,1.239-1.122,1.239H13.9V-3.422h1.2c.83,0,1.122.524,1.122,1.238M15,.558c.32,0,.443-.191.443-.47V-2.327A.4.4,0,0,0,15-2.789h-.326V.558Zm1.559-3.98h1.85v.633H17.336V-1.47H18.1v.626h-.769v1.4h1.075v.633h-1.85Z" fill="#fff"/>
      </g>
    </g>
    <path id="Caminho_355" data-name="Caminho 355" d="M119.619,0h56.439V-56.443H119.619Z" fill="#e2263d"/>
    <g id="Grupo_483" data-name="Grupo 483" clip-path="url(#clip-path)">
      <g id="Grupo_478" data-name="Grupo 478" transform="translate(127.499 -49.02)">
        <path id="Caminho_356" data-name="Caminho 356" d="M0,0H.017V8.711H1.93V-2.669H.4L-1.36-.6v2h.017ZM35.586,19.5a1.562,1.562,0,1,1,1.563,1.563A1.563,1.563,0,0,1,35.586,19.5m3.387,2.165a2.081,2.081,0,0,1,1.891,2.075v4.332a.605.605,0,0,1-1.211,0v-3.72c0-.14-.041-.329-.3-.329-.176,0-.213.187-.219.306v11.15a.871.871,0,0,1-1.742,0V29.058a.236.236,0,0,0-.247-.255h0a.239.239,0,0,0-.251.255v6.426a.87.87,0,1,1-1.74,0V24.334c-.006-.119-.044-.306-.219-.306-.256,0-.295.189-.295.328v3.72a.606.606,0,1,1-1.211,0V23.745a2.081,2.081,0,0,1,1.893-2.075.8.8,0,0,1,.115-.01h3.414a1.02,1.02,0,0,1,.119.01M26.294,20.325a1.479,1.479,0,1,0-1.478,1.48,1.479,1.479,0,0,0,1.478-1.48m-4.459,3.352-1.23,4s-.22.734.4.917.808-.533.808-.533l.992-3.342s.053-.257.247-.2.121.33.121.33l-1.727,6.262h1.606V35.6a.771.771,0,0,0,1.541,0V31.114h.438V35.6a.772.772,0,0,0,1.543,0V31.114h1.6l-1.725-6.262s-.073-.275.121-.33.247.2.247.2l.991,3.342s.189.717.808.533.4-.917.4-.917l-1.23-4s-.439-1.157-1.413-1.157H23.248c-.973,0-1.413,1.157-1.413,1.157m-4.4-3.352a1.48,1.48,0,1,0-1.479,1.48,1.48,1.48,0,0,0,1.479-1.48m-4.461,3.352-1.229,4s-.22.734.4.917.807-.533.807-.533l.992-3.342s.054-.257.247-.2.121.33.121.33l-1.726,6.262h1.605V35.6a.771.771,0,0,0,1.542,0V31.114h.438V35.6a.771.771,0,0,0,1.542,0V31.114h1.6l-1.724-6.262s-.074-.275.119-.33.247.2.247.2l.991,3.342s.189.717.808.533.4-.917.4-.917l-1.23-4S18.5,22.52,17.521,22.52H14.386c-.973,0-1.414,1.157-1.414,1.157m18.291,4.929a1.232,1.232,0,1,0-1.231-1.232,1.23,1.23,0,0,0,1.231,1.232m-2.952,3.826a.427.427,0,0,0,.179.583.411.411,0,0,0,.528-.172l.669-2.135s.117-.143.117,0v5.026h0a.63.63,0,0,0,.628.632h0a.631.631,0,0,0,.631-.632V33.755s-.036-.28.189-.28.192.28.192.28v1.984a.633.633,0,0,0,1.266,0V30.713c0-.148.078-.043.078-.043l.525,1.462a3.521,3.521,0,0,0,.3.683.467.467,0,0,0,.61-.253.462.462,0,0,0-.05-.45l0,0c-.015-.047-.784-1.933-.874-2.2-.278-.811-.784-.8-1.27-.817s-.779,0-.779,0-.311-.013-.953.006-.845.349-1.553,2.17c-.1.263-.442,1.111-.447,1.162ZM4.219,19.5a1.563,1.563,0,1,0-1.564,1.562A1.564,1.564,0,0,0,4.219,19.5M.831,21.67a2.083,2.083,0,0,0-1.892,2.075v4.332a.607.607,0,0,0,.606.6.607.607,0,0,0,.606-.6v-3.72c0-.14.041-.329.3-.329.176,0,.213.187.22.306v11.15a.87.87,0,0,0,1.74,0V29.058a.238.238,0,0,1,.248-.255h0a.239.239,0,0,1,.251.255v6.426a.87.87,0,0,0,1.74,0V24.334c.005-.119.045-.306.219-.306.257,0,.295.189.295.328v3.72a.606.606,0,0,0,1.212,0V23.745A2.082,2.082,0,0,0,4.479,21.67a.78.78,0,0,0-.114-.01H.95a.828.828,0,0,0-.119.01" fill="#fff"/>
      </g>
      <g id="Grupo_479" data-name="Grupo 479" transform="translate(125.58 -12.898)">
        <path id="Caminho_357" data-name="Caminho 357" d="M0,0A.061.061,0,0,1-.062-.061a.05.05,0,0,1,0-.012L1.327-7.427A.061.061,0,0,1,1.4-7.474a.062.062,0,0,1,.048.07L.06-.05A.06.06,0,0,1,0,0M9.033-8.161a.448.448,0,0,0-.38-.21.448.448,0,0,0-.448.447.822.822,0,0,0,.044.2L9.49-5.48a.8.8,0,0,1,.076.3V-.358h0a.606.606,0,0,0,.606.606h0a.6.6,0,0,0,.605-.6V-2.263s-.034-.269.183-.269.183.269.183.269V-.358a.606.606,0,0,0,.606.606h0a.607.607,0,0,0,.608-.606V-5.183a.806.806,0,0,1,.075-.3l1.148-2.074a2.019,2.019,0,0,0,.14-.37.449.449,0,0,0-.449-.447.444.444,0,0,0-.38.21l-.005,0c-.036.031-.611,1.055-.8,1.244a.5.5,0,0,1-.38.18H10.219a.5.5,0,0,1-.381-.18c-.192-.189-.764-1.213-.8-1.244Z" fill="#fff"/>
      </g>
      <g id="Grupo_480" data-name="Grupo 480" transform="translate(136.544 -20.413)">
        <path id="Caminho_358" data-name="Caminho 358" d="M0,0A1.231,1.231,0,0,0,1.231-1.233,1.229,1.229,0,0,0,0-2.463a1.229,1.229,0,0,0-1.231,1.23A1.231,1.231,0,0,0,0,0M0,1.729,1.394,2.744l.661,2.435H-2.053l.663-2.435Z" fill="#fff"/>
      </g>
      <g id="Grupo_481" data-name="Grupo 481" transform="translate(135.851 -51.771)">
        <path id="Caminho_359" data-name="Caminho 359" d="M0,0H1.851V.633H.776v1.32h.768v.626H.776v1.4H1.851v.633H0ZM3.109,2.5V4.613H2.334V0H3.463c.782,0,1.068.388,1.068,1.034v.592c0,.5-.177.789-.619.891l.742,2.1H3.837Zm0-1.864V2.068h.259a.336.336,0,0,0,.381-.381v-.68c0-.252-.116-.374-.381-.374ZM5.79,2.5V4.613H5.014V0h1.13c.782,0,1.068.388,1.068,1.034v.592c0,.5-.177.789-.619.891l.741,2.1H6.518Zm0-1.864V2.068h.258a.336.336,0,0,0,.382-.381v-.68c0-.252-.116-.374-.382-.374Zm1.79,3.98L8.45,0h.885l.878,4.613h-.8l-.143-.844H8.45l-.136.844ZM8.552,3.15h.62L8.865,1.3H8.859ZM12.92,1.238V3.374c0,.708-.292,1.239-1.122,1.239H10.6V0h1.2c.83,0,1.122.524,1.122,1.238M11.7,3.98c.319,0,.442-.19.442-.469V1.1A.4.4,0,0,0,11.7.633h-.327V3.98ZM13.431,0h.776V4.613h-.776Zm1.286,3.422V1.191A1.087,1.087,0,0,1,15.873-.054c.858,0,1.1.476,1.1,1.156v.545h-.708V1.041c0-.286-.095-.449-.374-.449s-.394.2-.394.476V3.545c0,.279.115.476.394.476s.374-.177.374-.449V2.721h.708v.8c0,.66-.272,1.15-1.1,1.15a1.09,1.09,0,0,1-1.156-1.245m2.619,1.191L18.207,0h.885l.877,4.613h-.8l-.143-.844h-.823l-.136.844Zm.973-1.463h.619L18.622,1.3h-.007ZM21.18,5.082c.218-.007.252-.054.252-.109s-.041-.074-.109-.074h-.034V4.647c-.66-.082-.932-.579-.932-1.225V1.191A1.088,1.088,0,0,1,21.514-.054c.857,0,1.095.476,1.095,1.156v.545H21.9V1.041c0-.286-.1-.449-.374-.449s-.4.2-.4.476V3.545c0,.279.116.476.4.476s.374-.177.374-.449V2.721h.707v.8c0,.647-.258,1.123-1.027,1.15v.061c.184.028.286.1.286.245,0,.211-.2.327-.687.327V5.082Zm1.8-.469L23.848,0h.884l.878,4.613h-.8l-.143-.844h-.823l-.136.844Zm.605-4.8c.014-.319.136-.578.477-.578.2,0,.36.116.462.116a.092.092,0,0,0,.1-.1H25c-.014.319-.136.578-.477.578-.2,0-.36-.116-.462-.116a.092.092,0,0,0-.1.1ZM23.95,3.15h.619L24.263,1.3h-.007ZM26,3.422V1.191a1.176,1.176,0,1,1,2.347,0V3.422a1.176,1.176,0,1,1-2.347,0m1.571.123V1.068c0-.279-.122-.476-.4-.476s-.395.2-.395.476V3.545c0,.279.123.476.395.476s.4-.2.4-.476" fill="#fff"/>
      </g>
      <g id="Grupo_482" data-name="Grupo 482" transform="translate(138.171 -43.708)">
        <path id="Caminho_360" data-name="Caminho 360" d="M0,0V2.136c0,.708-.293,1.239-1.123,1.239h-1.2V-1.238h1.2C-.293-1.238,0-.714,0,0M-1.218,2.742c.32,0,.442-.191.442-.47V-.143a.4.4,0,0,0-.442-.462h-.326V2.742Zm1.606.633.871-4.613h.884l.878,4.613h-.8l-.143-.844H1.259l-.136.844Zm.973-1.463H1.98L1.674.061H1.667Zm2.83-3.15h1.15c.782,0,1.068.388,1.068,1.034V.769c0,.646-.286,1.041-1.068,1.041H4.967V3.375H4.191Zm.776.633V1.211h.286A.333.333,0,0,0,5.634.83V-.231c0-.252-.116-.374-.381-.374ZM6.879,2.184V-.048a1.1,1.1,0,0,1,1.17-1.245A1.1,1.1,0,0,1,9.226-.048V2.184A1.1,1.1,0,0,1,8.049,3.429a1.1,1.1,0,0,1-1.17-1.245m1.572.122V-.17c0-.279-.123-.476-.4-.476s-.394.2-.394.476V2.306c0,.279.122.477.394.477s.4-.2.4-.477M9.737-1.238h1.122c.776,0,1.034.36,1.034,1.013v.47a.672.672,0,0,1-.462.735.7.7,0,0,1,.578.769v.612c0,.653-.293,1.014-1.068,1.014h-1.2ZM10.512.708h.272a.328.328,0,0,0,.368-.375V-.231a.327.327,0,0,0-.375-.374h-.265Zm0,.591V2.742h.34a.333.333,0,0,0,.381-.374V1.674c0-.245-.115-.375-.388-.375Zm2.729-.04V3.375h-.776V-1.238h1.129c.783,0,1.068.388,1.068,1.034V.388c0,.5-.177.789-.619.891l.742,2.1h-.817Zm0-1.864V.83H13.5A.336.336,0,0,0,13.88.449v-.68c0-.252-.116-.374-.381-.374Zm1.912-.633H17v.633H15.928V.714H16.7V1.34h-.769v1.4H17v.633h-1.85Zm3.089,3.98h1.176v.633H17.432V2.742L18.65-.605h-1.1v-.633h1.912v.633Zm1.578.633.871-4.613h.884l.878,4.613h-.8l-.143-.844h-.823l-.136.844Zm.973-1.463h.619L21.106.061H21.1Z" fill="#fff"/>
      </g>
    </g>
  </g>
</svg>
