<svg id="Grupo_534" data-name="Grupo 534" xmlns="http://www.w3.org/2000/svg" width="76.069" height="44.678" viewBox="0 0 76.069 44.678">
  <g id="Grupo_501" data-name="Grupo 501" transform="translate(0 0)">
    <path id="Caminho_376" data-name="Caminho 376" d="M-27-17.9l-67.4,0,8.578-44.673h67.49Z" transform="translate(94.401 62.576)" fill="#003fd8"/>
  </g>
  <g id="Grupo_505" data-name="Grupo 505" transform="translate(25.303 34.983)">
    <path id="Caminho_380" data-name="Caminho 380" d="M-9.5,0H-32.519l-.695,3.208H-10.2Z" transform="translate(33.214)" fill="#fff"/>
  </g>
  <g id="Grupo_506" data-name="Grupo 506" transform="translate(28.325 6.114)">
    <path id="Caminho_381" data-name="Caminho 381" d="M-9.5,0H-32.519l-.695,3.208H-10.2Z" transform="translate(33.214)" fill="#fff"/>
  </g>
  <g id="Grupo_507" data-name="Grupo 507" transform="translate(45.066 9.321)">
    <path id="Caminho_382" data-name="Caminho 382" d="M-2.518,0H.774L-5.507,28.867H-8.8Z" transform="translate(8.803)" fill="#fff"/>
  </g>
  <g id="Grupo_508" data-name="Grupo 508" transform="translate(22.711 6.115)">
    <path id="Caminho_383" data-name="Caminho 383" d="M-2.518,0H.774L-5.507,28.867H-8.8Z" transform="translate(8.803)" fill="#fff"/>
  </g>
  <g id="Grupo_509" data-name="Grupo 509" transform="translate(33.485 12.547)">
    <path id="Caminho_384" data-name="Caminho 384" d="M-.28,0H12.887l-.7,3.208H-.978Z" transform="translate(0.978)" fill="#fff"/>
  </g>
  <g id="Grupo_510" data-name="Grupo 510" transform="translate(32.106 18.945)">
    <path id="Caminho_385" data-name="Caminho 385" d="M-.28,0H12.887l-.7,3.208H-.978Z" transform="translate(0.978)" fill="#fff"/>
  </g>
  <g id="Grupo_511" data-name="Grupo 511" transform="translate(30.708 25.378)">
    <path id="Caminho_386" data-name="Caminho 386" d="M-.28,0H12.887l-.7,3.208H-.978Z" transform="translate(0.978)" fill="#fff"/>
  </g>
</svg>
