<svg id="Grupo_543" data-name="Grupo 543" xmlns="http://www.w3.org/2000/svg" width="76.069" height="44.678" viewBox="0 0 76.069 44.678">
  <path id="Caminho_399" data-name="Caminho 399" d="M-27-17.9l-67.4,0,8.578-44.673h67.49Z" transform="translate(94.401 62.576)" fill="#003fd8"/>
  <g id="Grupo_540" data-name="Grupo 540" transform="translate(21.284 11.94)">
    <path id="Caminho_388" data-name="Caminho 388" d="M-15.381-3.588c-6.846-6.4-13.875-9.394-20.913-8.905-8.653.6-15.052,6.358-17.483,8.905h2.233c2.7-2.617,8.077-6.821,15.081-7.3,6.2-.426,12.65,2.1,18.663,7.3Z" transform="translate(53.777 12.545)" fill="none" stroke="#fff" stroke-linecap="square" stroke-width="2.08"/>
  </g>
  <g id="Grupo_541" data-name="Grupo 541" transform="translate(17.117 22.382)">
    <path id="Caminho_390" data-name="Caminho 390" d="M-15.272,0c-6.846,6.4-13.875,9.394-20.913,8.905C-44.814,8.306-51,2.607-53.395,0h2.27c2.7,2.617,8.077,6.821,15.081,7.3,6.1.418,12.277-2.036,18.354-7.3Z" transform="translate(53.395)" fill="none" stroke="#fff" stroke-linecap="square" stroke-width="2.08"/>
  </g>
  <g id="Grupo_542" data-name="Grupo 542" transform="translate(32.57 16.259)">
    <path id="Caminho_391" data-name="Caminho 391" d="M-2.108-4.216A5.262,5.262,0,0,0,3.154-9.478,5.262,5.262,0,0,0-2.108-14.74,5.262,5.262,0,0,0-7.37-9.478,5.262,5.262,0,0,0-2.108-4.216" transform="translate(7.37 14.74)" fill="#fff"/>
  </g>
</svg>
